<svg xmlns="http://www.w3.org/2000/svg" width="29" height="26" viewBox="0 0 29 26" fill="none">
<path d="M16.1816 3.7981L18.2557 7.60697C18.5385 8.13719 19.2928 8.64576 19.9291 8.74314L23.6885 9.31664C26.0926 9.68454 26.6582 11.286 24.9259 12.8658L22.0033 15.5493C21.5083 16.0038 21.2373 16.8803 21.3905 17.5079L22.2272 20.8298C22.8871 23.4592 21.3669 24.4764 18.8332 23.1021L15.3095 21.1869C14.6732 20.8406 13.6243 20.8406 12.9762 21.1869L9.45252 23.1021C6.93059 24.4764 5.39858 23.4484 6.05852 20.8298L6.89524 17.5079C7.04844 16.8803 6.77739 16.0038 6.28243 15.5493L3.35982 12.8658C1.63925 11.286 2.19313 9.68454 4.59722 9.31664L8.35654 8.74314C8.98113 8.64576 9.73536 8.13719 10.0182 7.60697L12.0923 3.7981C13.2236 1.73136 15.0621 1.73136 16.1816 3.7981Z" fill="#FE4E4E"/>
</svg>